<!--?xml version="1.0" encoding="utf-8"?-->
<!-- Generator: Adobe Illustrator 15.1.0, SVG Export Plug-In . SVG Version: 6.00 Build 0)  -->

<svg version="1.1" id="_x32_" xmlns="http://www.w3.org/2000/svg" xmlns:xlink="http://www.w3.org/1999/xlink" x="0px" y="0px" width="512px" height="512px" viewBox="0 0 512 512" style="width: 256px; height: 256px; opacity: 1;" xml:space="preserve">
<style type="text/css">

	.st0{fill:#4B4B4B;}

</style>
<g>
	<path class="st0" d="M0,197.344v265.031h210.969V366h90.063v96.375H512V197.344H0z M105.188,411.031h-39.75v-43.719h39.75V411.031z
		 M105.188,299.094h-39.75v-43.719h39.75V299.094z M275.875,299.094h-39.766v-43.719h39.766V299.094z M446.563,411.031h-39.781
		v-43.719h39.781V411.031z M446.563,299.094h-39.781v-43.719h39.781V299.094z" style="fill: rgb(75, 75, 75);"></path>
	<rect x="263.719" y="49.625" class="st0" width="77.188" height="123.5" style="fill: rgb(75, 75, 75);"></rect>
	<rect x="78.469" y="49.625" class="st0" width="77.188" height="123.5" style="fill: rgb(75, 75, 75);"></rect>
	<rect x="171.078" y="49.625" class="st0" width="77.203" height="123.5" style="fill: rgb(75, 75, 75);"></rect>
	<rect x="0.75" y="49.625" class="st0" width="62.266" height="123.5" style="fill: rgb(75, 75, 75);"></rect>
	<rect x="448.969" y="49.625" class="st0" width="62.266" height="123.5" style="fill: rgb(75, 75, 75);"></rect>
	<rect x="356.344" y="49.625" class="st0" width="77.188" height="123.5" style="fill: rgb(75, 75, 75);"></rect>
</g>
</svg>
